<svg width="24" height="17" viewBox="0 0 24 17" fill="none" xmlns="http://www.w3.org/2000/svg">
<path d="M0 0.5H5.367V17H0V0.5ZM19.986 0.6935C19.929 0.6755 19.875 0.656 19.815 0.6395C19.743 0.623195 19.6704 0.609188 19.5975 0.5975C19.2806 0.532706 18.958 0.500041 18.6345 0.5C15.5055 0.5 13.521 2.7755 12.867 3.6545V0.5H7.5V17H12.867V8C12.867 8 16.923 2.351 18.6345 6.5V17H24V5.8655C23.9978 4.68071 23.6025 3.53014 22.8761 2.59416C22.1496 1.65818 21.1332 0.989697 19.986 0.6935Z" fill="#FAFBFF"/>
</svg>
